<svg id="Capa_1" data-name="Capa 1" xmlns="http://www.w3.org/2000/svg" viewBox="0 0 430.123 267.63">
  <title>behance-logo-bianco</title>
  <path id="Behance" d="M388.432,119.12H280.659V92.35H388.441v26.77ZM208.912,228.9q10.431,16.156,10.429,39.2c0,15.878-3.918,30.122-11.889,42.7a74.045,74.045,0,0,1-18.932,21.021,73.157,73.157,0,0,1-30.2,13.437,186.735,186.735,0,0,1-37.787,3.617H0V81.247H129.25c32.579.53,55.676,9.969,69.315,28.506q12.276,17.054,12.239,40.868c0,16.362-4.1,29.454-12.368,39.4q-6.9,8.365-20.378,15.229C191.675,210.236,202.007,218.086,208.912,228.9ZM61.722,186.76h56.632c11.638,0,21.046-2.212,28.292-6.634S157.5,167.863,157.5,156.6c0-12.449-4.784-20.712-14.375-24.689-8.244-2.763-18.792-4.186-31.591-4.186H61.722Zm101.231,77.515c0-13.9-5.682-23.513-17.023-28.67-6.342-2.931-15.29-4.429-26.763-4.536H61.722v71.322h56.556c11.619,0,20.612-1.521,27.1-4.694C157.084,291.863,162.953,280.76,162.953,264.275Zm265.466-43.539c1.3,8.756,1.891,21.46,1.652,38.065H290.493q1.155,28.9,20.035,40.449c7.607,4.835,16.83,7.2,27.63,7.2,11.388,0,20.67-2.879,27.815-8.8a41.824,41.824,0,0,0,10.3-13.152h51.16c-1.34,11.379-7.5,22.92-18.57,34.648q-25.726,27.962-72.1,27.988-38.28,0-67.533-23.592Q240.044,299.9,240,246.746q0-49.886,26.378-76.43c17.67-17.751,40.474-26.586,68.583-26.586q24.991,0,45.079,8.965,20.035,8.989,33.09,28.388C421,192.5,426.058,205.7,428.419,220.736Zm-50.357,4.994q-1.407-19.983-13.4-30.3-11.914-10.365-29.706-10.379c-12.886,0-22.836,3.708-29.906,11-7.118,7.273-11.547,17.161-13.362,29.68h86.369Z" transform="translate(0 -81.247)" fill="#fff"/>
</svg>
