<svg xmlns="http://www.w3.org/2000/svg" viewBox="0 0 293.464 531.446">
  <title>love_coffee</title>
  <g id="Layer_1" data-name="Layer 1">
    <g>
      <polygon points="39.388 222.939 42.919 287.812 250.545 287.812 254.077 222.939 39.388 222.939" fill="#f7f7f7"/>
      <path d="M396.541,494.422H207.46l2.325,42.7c.009.156.013.314.013.47l-.013,13.127H394.217L394.2,537.6c0-.156,0-.314.013-.47Z" transform="translate(-155.268 -36.277)" fill="#f7f7f7"/>
      <rect x="17" y="186.869" width="259.464" height="19.07" fill="#f7f7f7"/>
      <rect x="45.856" y="141.169" width="201.754" height="28.701" fill="#f7f7f7"/>
      <path d="M440.232,206.146H419.878v-37.2a8.5,8.5,0,0,0-8.5-8.5H192.624a8.5,8.5,0,0,0-8.5,8.5v37.2H163.768a8.5,8.5,0,0,0-8.5,8.5v36.07a8.5,8.5,0,0,0,8.5,8.5h13.863l3.532,64.873h-4.026a8.5,8.5,0,0,0-8.487,8.962L177,486.384a8.5,8.5,0,0,0,8.487,8.038h4.95l2.363,43.393-.021,21.4a8.5,8.5,0,0,0,8.5,8.508H402.724a8.5,8.5,0,0,0,8.5-8.508l-.02-21.4,2.362-43.393h4.95A8.5,8.5,0,0,0,427,486.384l8.346-153.333a8.5,8.5,0,0,0-8.487-8.962h-4.024l3.531-64.873h13.862a8.5,8.5,0,0,0,8.5-8.5v-36.07A8.5,8.5,0,0,0,440.232,206.146ZM394.217,550.723H209.785L209.8,537.6c0-.156,0-.314-.013-.47l-2.325-42.7H396.541l-2.324,42.7c-.009.156-.013.314-.013.47Zm-200.682-73.3-7.422-136.333H417.887l-7.42,136.333Zm4.652-153.333-3.531-64.873H409.344l-3.531,64.873Zm233.545-81.873H172.268v-19.07H431.732Zm-28.854-64.77v28.7H201.124v-28.7Z" transform="translate(-155.268 -36.277)" fill="#333"/>
      <path d="M315.046,94.575c5.767,10.4,10.323,18.608,3.007,31.249a7.5,7.5,0,1,0,12.983,7.513c11.574-20,3.224-35.049-2.874-46.039-2.443-4.4-4.75-8.56-5.433-12.235-2.741-14.747,6.993-25.653,7.478-26.183a7.5,7.5,0,0,0-10.968-10.233c-.632.674-15.422,16.755-11.258,39.157C309.111,83.88,312.128,89.318,315.046,94.575Z" transform="translate(-155.268 -36.277)" fill="#333"/>
      <path d="M272.97,94.575c5.768,10.4,10.324,18.608,3.008,31.249a7.5,7.5,0,1,0,12.983,7.513c11.574-20,3.223-35.049-2.874-46.039-2.443-4.4-4.75-8.56-5.433-12.235-2.741-14.747,6.993-25.653,7.478-26.183a7.5,7.5,0,0,0-10.968-10.233c-.632.674-15.422,16.755-11.258,39.157C267.036,83.88,270.053,89.318,272.97,94.575Z" transform="translate(-155.268 -36.277)" fill="#333"/>
      <polygon points="30.845 304.812 38.267 441.145 255.199 441.145 262.62 304.812 30.845 304.812" fill="#a4845b"/>
    </g>
  </g>
</svg>
