<?xml version="1.0" encoding="utf-8"?>
<!-- Generator: Adobe Illustrator 22.0.1, SVG Export Plug-In . SVG Version: 6.00 Build 0)  -->
<svg version="1.1" id="Livello_2_1_" xmlns="http://www.w3.org/2000/svg" xmlns:xlink="http://www.w3.org/1999/xlink" x="0px"
	 y="0px" viewBox="0 0 50 50" style="enable-background:new 0 0 50 50;" xml:space="preserve">
<style type="text/css">
	.st0{fill:url(#SVGID_1_);stroke:#000000;stroke-width:0.2919;stroke-miterlimit:10;}
	.st1{fill:url(#SVGID_2_);stroke:#000000;stroke-width:0.2752;stroke-miterlimit:10;}
	.st2{fill:url(#SVGID_3_);stroke:#000000;stroke-width:0.2674;stroke-miterlimit:10;}
	.st3{fill:url(#SVGID_4_);stroke:#000000;stroke-width:0.2919;stroke-miterlimit:10;}
	.st4{fill:url(#SVGID_5_);stroke:#000000;stroke-width:0.2919;stroke-miterlimit:10;}
	.st5{fill:url(#SVGID_6_);stroke:#000000;stroke-width:0.2919;stroke-miterlimit:10;}
	.st6{fill:#FFFFFF;stroke:#000000;stroke-width:0.2919;stroke-miterlimit:10;}
	.st7{fill:#FFB598;stroke:#000000;stroke-width:0.2919;stroke-miterlimit:10;}
	.st8{fill:url(#SVGID_7_);stroke:#000000;stroke-width:0.2919;stroke-miterlimit:10;}
	.st9{fill:url(#SVGID_8_);stroke:#000000;stroke-width:0.2919;stroke-miterlimit:10;}
	.st10{fill:url(#SVGID_9_);}
	.st11{fill:url(#SVGID_10_);stroke:#000000;stroke-width:0.2919;stroke-miterlimit:10;}
	.st12{fill:none;stroke:#000000;stroke-width:0.2919;stroke-miterlimit:10;}
	.st13{fill:url(#SVGID_11_);stroke:#000000;stroke-width:0.2919;stroke-miterlimit:10;}
</style>
<title>img_profile</title>
<g>
	
		<linearGradient id="SVGID_1_" gradientUnits="userSpaceOnUse" x1="25.1305" y1="11.8865" x2="25.1305" y2="17.5781" gradientTransform="matrix(1 0 0 -1 0 52)">
		<stop  offset="0.304" style="stop-color:#FFEC15"/>
		<stop  offset="1" style="stop-color:#D70004"/>
	</linearGradient>
	<polygon class="st0" points="14.3,34.4 18.2,36.5 32,36.3 36,34.4 34.5,39.7 17.9,40.1 	"/>
	
		<linearGradient id="SVGID_2_" gradientUnits="userSpaceOnUse" x1="17.8885" y1="22.6858" x2="17.8885" y2="26.918" gradientTransform="matrix(1 0 0 -1 0 52)">
		<stop  offset="0" style="stop-color:#FF00FF"/>
		<stop  offset="1" style="stop-color:#7300CA"/>
	</linearGradient>
	<polyline class="st1" points="17.1,25.1 16.6,29.3 18.4,29.3 19.2,25.1 	"/>
	
		<linearGradient id="SVGID_3_" gradientUnits="userSpaceOnUse" x1="31.9575" y1="22.5399" x2="31.9575" y2="26.772" gradientTransform="matrix(1 0 0 -1 0 52)">
		<stop  offset="0" style="stop-color:#FF00FF"/>
		<stop  offset="1" style="stop-color:#7300CA"/>
	</linearGradient>
	<polyline class="st2" points="30.7,25.2 31.4,29.5 33.2,29.5 32.6,25.2 	"/>
	
		<linearGradient id="SVGID_4_" gradientUnits="userSpaceOnUse" x1="18.8047" y1="10.5732" x2="18.8047" y2="12.7622" gradientTransform="matrix(1 0 0 -1 0 52)">
		<stop  offset="0" style="stop-color:#FF72FF"/>
		<stop  offset="1" style="stop-color:#E900CA"/>
	</linearGradient>
	<polyline class="st3" points="18.1,39.2 21,41.4 17,41.4 16.6,41.2 	"/>
	
		<linearGradient id="SVGID_5_" gradientUnits="userSpaceOnUse" x1="31.2598" y1="10.5732" x2="31.2598" y2="12.6807" gradientTransform="matrix(1 0 0 -1 0 52)">
		<stop  offset="0" style="stop-color:#FF72FF"/>
		<stop  offset="1" style="stop-color:#E900CA"/>
	</linearGradient>
	<polyline class="st4" points="33.7,41.4 28.9,41.4 31.8,39.3 	"/>
	
		<linearGradient id="SVGID_6_" gradientUnits="userSpaceOnUse" x1="24.8531" y1="30.7122" x2="24.8531" y2="43.5329" gradientTransform="matrix(1 0 0 -1 0 52)">
		<stop  offset="0" style="stop-color:#FCEE21"/>
		<stop  offset="1" style="stop-color:#F75D1E"/>
	</linearGradient>
	<path class="st5" d="M30.4,19.8c-0.5-1.8-0.7-3.7-0.7-5.6c0.1-3.1-0.9-5.4-3.1-5l0,0c-1.9-1.5-4.3-0.2-5.1,0.6
		c-0.9,0.9-1.2,5.5-1.2,6.7c0,1.2-1.1,3.4-1.1,3.4l5.5,1.4L30.4,19.8z"/>
	<path class="st6" d="M23.2,18.4l-5.5,2.2l-1.2,4.5h3.4c0,0,1.2,2.3,1.2,4.2h8c0,0,0-2.8,1-4.1h3.4l-0.9-4.5L27,18.3"/>
	<path d="M20.2,23.5c-0.1,0.3-0.1,0.6-0.1,0.9c0,0.3,0,0.6,0.1,0.9c0,0.1,0.1,0.3,0.2,0.4c0.1,0.1,0.2,0.3,0.3,0.4
		c0.2,0.2,0.5,0.4,0.7,0.6c-0.3-0.1-0.6-0.2-0.9-0.4c-0.1-0.1-0.2-0.2-0.3-0.4c-0.1-0.1-0.2-0.3-0.2-0.5c-0.1-0.3-0.1-0.7-0.1-1
		C20,24.1,20.1,23.8,20.2,23.5z"/>
	<path d="M29.6,23.5c0.2,0.3,0.3,0.6,0.3,0.9c0.1,0.3,0,0.7-0.1,1c-0.1,0.2-0.1,0.3-0.2,0.5c-0.1,0.1-0.2,0.3-0.3,0.4
		c-0.3,0.2-0.6,0.4-0.9,0.4c0.3-0.2,0.5-0.4,0.7-0.6c0.1-0.1,0.2-0.2,0.3-0.4c0.1-0.1,0.1-0.3,0.2-0.4c0.1-0.3,0.1-0.6,0.1-0.9
		C29.7,24.1,29.7,23.8,29.6,23.5z"/>
	<polyline class="st7" points="23.2,17 23.2,19.4 24.9,20.4 27,19.7 27,17 	"/>
	<path class="st7" d="M21.6,14.4c0,0.3,0.2,0.5,0.4,0.6c0.4,0.1,0.7,0.9,0.7,1.2s1.2,2,2.2,2s1.5-0.5,2.3-1.8
		c0.3-0.4,0.3-0.7,0.3-1.3c0-0.3,0.7-0.1,0.7-0.7v-1.1c0,0-1-1.4-0.6-2.6c0,0-1.1,0-1.5,0.2c-0.4,0.1-0.8,0.6-0.8,0.6l-0.7,0.8
		c0,0-0.5,0.6-0.8,0.8c-0.3,0.1-0.4,0.3-1,0.5c-0.4,0.1-0.8,0.1-1.3,0L21.6,14.4z"/>
	
		<linearGradient id="SVGID_7_" gradientUnits="userSpaceOnUse" x1="13.6746" y1="10.5732" x2="13.6746" y2="19.0374" gradientTransform="matrix(1 0 0 -1 0 52)">
		<stop  offset="0.304" style="stop-color:#FFEC15"/>
		<stop  offset="1" style="stop-color:#D70004"/>
	</linearGradient>
	<polygon class="st8" points="16.4,41.4 18.2,39.1 14.3,34.4 10,33 9.2,35.9 	"/>
	
		<linearGradient id="SVGID_8_" gradientUnits="userSpaceOnUse" x1="36.3676" y1="10.5732" x2="36.3676" y2="19.0374" gradientTransform="matrix(1 0 0 -1 0 52)">
		<stop  offset="0.304" style="stop-color:#FFEC15"/>
		<stop  offset="1" style="stop-color:#D70004"/>
	</linearGradient>
	<polygon class="st9" points="31.8,39.1 33.7,41.4 41,35.9 40.1,33 36,34.3 	"/>
	<g>
		
			<linearGradient id="SVGID_9_" gradientUnits="userSpaceOnUse" x1="14.2314" y1="16.5337" x2="35.8872" y2="16.5337" gradientTransform="matrix(1 0 0 -1 0 52)">
			<stop  offset="0" style="stop-color:#FF002A"/>
			<stop  offset="1" style="stop-color:#1700E9"/>
		</linearGradient>
		<polygon class="st10" points="18.1,41.4 14.2,29.6 35.9,29.8 32.2,41.4 		"/>
		<path d="M14.5,29.8l21.2,0.2l-3.5,11.2H18.2L14.5,29.8 M14,29.4l4,12.1h14.4l3.8-11.9L14,29.4L14,29.4z"/>
	</g>
	
		<linearGradient id="SVGID_10_" gradientUnits="userSpaceOnUse" x1="26.4034" y1="37.1451" x2="26.4034" y2="38.8723" gradientTransform="matrix(1 0 0 -1 0 52)">
		<stop  offset="0" style="stop-color:#FFD1F2"/>
		<stop  offset="1" style="stop-color:#7CD1F2"/>
	</linearGradient>
	<circle class="st11" cx="26.4" cy="14" r="0.9"/>
	<line class="st12" x1="24.5" y1="13.8" x2="25.5" y2="13.8"/>
	<path d="M21.8,12.2c0-0.3,0-0.5,0.1-0.8c0.1-0.3,0.2-0.5,0.3-0.8c0.1-0.1,0.2-0.2,0.2-0.3c0.1-0.1,0.2-0.2,0.3-0.3
		c0.1-0.1,0.2-0.2,0.4-0.2c0.1-0.1,0.3-0.1,0.4-0.1c-0.1,0.1-0.2,0.1-0.3,0.2c-0.1,0.1-0.2,0.2-0.3,0.3c-0.1,0.1-0.2,0.2-0.2,0.3
		c-0.1,0.1-0.1,0.2-0.2,0.3c-0.1,0.2-0.3,0.4-0.4,0.7C22,11.7,21.9,11.9,21.8,12.2z"/>
	<path d="M21.8,13.6c0.1,0.1,0.3,0.1,0.4,0.1c0.1,0,0.3,0,0.4,0c0.3-0.1,0.6-0.2,0.8-0.3l0.2-0.1l0.2-0.1c0.1,0,0.1-0.1,0.2-0.1
		c0.1,0,0.1-0.1,0.2-0.1c0.1-0.1,0.2-0.2,0.3-0.3c0.1-0.1,0.2-0.2,0.3-0.3c0.2-0.2,0.4-0.5,0.6-0.7c0.2-0.2,0.4-0.4,0.7-0.6
		c0.3-0.1,0.6-0.2,0.9-0.2c0.3,0,0.6,0,0.9,0H28L28,10.8c0,0.1,0,0.1-0.1,0.2c0,0.1,0,0.1,0,0.2c0,0.1,0,0.3,0,0.4
		c0,0.3,0.1,0.6,0.2,0.8c0.1,0.1,0.1,0.3,0.2,0.4c0,0.1,0.1,0.1,0.1,0.2l0.1,0.2c0,0.1,0.1,0.1,0.1,0.2l0.1,0.2
		c0.1,0.1,0.2,0.2,0.3,0.3c-0.1-0.1-0.2-0.2-0.3-0.3l-0.2-0.2l-0.1-0.1c0,0,0-0.1-0.1-0.1l-0.1-0.2c0-0.1-0.1-0.1-0.1-0.2
		c-0.1-0.1-0.2-0.3-0.2-0.4c-0.1-0.3-0.2-0.6-0.2-0.9c0-0.2,0-0.3,0-0.5c0-0.2,0-0.3,0.1-0.5l0.1,0.2c-0.3,0-0.6,0-0.9,0
		c-0.3,0-0.6,0.1-0.8,0.2c-0.2,0.1-0.5,0.3-0.6,0.5l-0.6,0.7c-0.1,0.1-0.2,0.2-0.3,0.3c-0.1,0.1-0.2,0.2-0.3,0.3
		c-0.2,0.2-0.5,0.4-0.8,0.5c-0.3,0.1-0.6,0.2-0.9,0.2c-0.2,0-0.3,0-0.5,0C22.1,13.7,21.9,13.7,21.8,13.6z"/>
	
		<linearGradient id="SVGID_11_" gradientUnits="userSpaceOnUse" x1="23.6315" y1="37.1447" x2="23.6315" y2="38.8066" gradientTransform="matrix(1 0 0 -1 0 52)">
		<stop  offset="0" style="stop-color:#FFD1F2"/>
		<stop  offset="1" style="stop-color:#7CD1F2"/>
	</linearGradient>
	<path class="st13" d="M24.2,14.7c0.4-0.3,0.4-0.8,0.1-1.2c-0.1-0.1-0.2-0.2-0.3-0.3c0,0-0.1,0-0.1,0.1c-0.3,0.1-0.4,0.3-1,0.5
		c0,0,0,0,0,0c-0.1,0.5,0.2,0.9,0.6,1C23.7,14.9,24,14.8,24.2,14.7L24.2,14.7z"/>
</g>
</svg>
