<svg id="Livello_1" data-name="Livello 1" xmlns="http://www.w3.org/2000/svg" viewBox="0 0 1400 240.933">
  <title>wallpaper_martabianchini2</title>
  <path d="M-28.687,187.879a1631.594,1631.594,0,0,0,252.311-28.408q30.865-5.942,61.482-13.082c20.688-4.825,41.131-10.924,61.891-15.382,17.325-3.721,37.883-4.425,51.074,9.539,5.534,5.857,6.591,12.616,7.733,20.266.966,6.472,2.78,13.308,8.589,17.119,7.326,4.8,15.663,2.042,22.622-1.978,7.17-4.142,14.047-8.247,21.889-11.055a112.192,112.192,0,0,1,47.717-5.947,108.627,108.627,0,0,1,45.137,14.324c14.629,8.575,25.353,21.32,37.6,32.761,12.991,12.139,27.314,20.349,45.3,21.845,19.981,1.662,40.86-1.714,60.735-3.642,42.951-4.166,85.748-9.724,128.558-15.111,84.482-10.631,169.51-20.707,254.82-17.785q16.107.551,32.18,1.742c7.7.565,7.669-11.438,0-12-85.522-6.272-171.117,1.856-255.99,12.192-42.473,5.173-84.882,10.878-127.409,15.6-21.413,2.379-42.856,4.51-64.336,6.192-18.823,1.474-37.556,2.833-53.948-8.181-14.011-9.413-24.176-23.439-37.221-34.028a116.938,116.938,0,0,0-42.48-21.84c-30.7-8.513-64.967-5.1-92.665,10.955-5.755,3.335-15.4,11.475-18.421,1.415-2.125-7.075-1.711-14.338-4.887-21.189-6.347-13.7-21.237-22.441-35.751-24.718-20.564-3.226-40.9,3.6-60.58,8.663q-30.975,7.968-62.25,14.7A1604.535,1604.535,0,0,1,3.264,174.485q-15.967.855-31.951,1.394c-7.7.265-7.737,12.266,0,12Z" fill="#f33"/>
  <path d="M1177.841,78.836l-.037,74.173-.009,16.812c0,4.962-.277,10.271,4.332,13.406,3.452,2.348,7.663,1.828,11.51,1.036a136.064,136.064,0,0,1,17.945-2.951c10.773-.759,21.82.295,31.779,4.716a47.57,47.57,0,0,1,12.033,7.545,36.622,36.622,0,0,1,4.922,5.07c2.42,3.151,2.483,2.626-.914,3.939a61.482,61.482,0,0,1-29.915,3.149,64.126,64.126,0,0,1-14.593-3.8c-1.963-.767-5.467-3.415-7.46-3.646,1.285.149-3.076,2.107.318,1.231,1.277-.33,2.589-1.32,3.918-1.7,10.588-3.027,21.928,3.228,31.262,7.429,11,4.951,22.31,8.958,34.438,5.956,7.493-1.854,4.319-13.429-3.19-11.571-12.626,3.125-24.6-4.892-35.8-9.528-10.135-4.194-22.02-7.1-32.637-2.9-4.131,1.634-8.93,4.38-10.276,8.942-1.923,6.523,3.485,11.389,8.665,14.041a74.975,74.975,0,0,0,34.643,8.078,76.292,76.292,0,0,0,17.388-2.177c5.311-1.3,12.011-2.954,15.51-7.443,7.916-10.156-5.037-21.923-12.694-27.436-9.742-7.013-21.461-10.613-33.314-11.764a88.944,88.944,0,0,0-18.775.314q-5.49.631-10.917,1.709c-1.234.247-2.462.521-3.691.795q-1.507.376-3.027.695-2.227-.237.518,1.579c.866-.107.042-42.324.044-46.245l.025-49.449c0-7.721-12-7.734-12,0Z" fill="#f33"/>
  <path d="M1272.816,207.839c29.242,5.358,57.341-7.219,86.517-5.169,14.811,1.041,29.129,5.665,43.909,7.1a129.726,129.726,0,0,0,44.271-3.605c7.482-1.894,4.311-13.471-3.19-11.572a119.683,119.683,0,0,1-42.941,2.982c-14.133-1.6-27.822-5.882-42.049-6.905-27.957-2.009-55.453,10.705-83.327,5.6-7.55-1.383-10.788,10.18-3.19,11.572Z" fill="#f33"/>
  <path d="M1188.238,75.66l.416-50.5h-12a1348.05,1348.05,0,0,1,2.27,140.311l11.786-1.6A437.7,437.7,0,0,1,1189.052,28.2c1.1-7.554-10.465-10.815-11.571-3.19a456.427,456.427,0,0,0,1.658,142.061c1.17,6.9,11.552,4.894,11.785-1.595a1348.05,1348.05,0,0,0-2.27-140.311c-.521-7.63-11.935-7.806-12,0l-.416,50.5c-.064,7.723,11.936,7.731,12,0Z" fill="#f33"/>
</svg>
